<?xml version="1.0" encoding="utf-8"?>
<!-- Generator: Adobe Illustrator 16.0.0, SVG Export Plug-In . SVG Version: 6.00 Build 0)  -->
<!DOCTYPE svg PUBLIC "-//W3C//DTD SVG 1.0//EN" "http://www.w3.org/TR/2001/REC-SVG-20010904/DTD/svg10.dtd">
<svg version="1.0" id="Layer_1" xmlns="http://www.w3.org/2000/svg" xmlns:xlink="http://www.w3.org/1999/xlink" x="0px" y="0px"
	 width="29px" height="28.993px" viewBox="0 0 29 28.993" enable-background="new 0 0 29 28.993" xml:space="preserve">
<path fill="#FFFFFF" d="M26.475,0H2.519C1.133,0,0,1.126,0,2.516v23.951c0,1.393,1.133,2.525,2.519,2.525h23.956
	c1.399,0,2.525-1.132,2.525-2.525V2.516C29,1.126,27.874,0,26.475,0z M25.615,10.341l-0.305,3.927h-4.031V27.93h-5.096V14.269
	h-2.715v-3.927h2.715V9.11V7.898V7.696c0-1.158,0.031-2.956,0.881-4.069c0.893-1.181,2.113-1.978,4.216-1.978
	c3.431,0,4.872,0.487,4.872,0.487l-0.678,4.026c0,0-1.139-0.326-2.188-0.326c-1.058,0-2.006,0.376-2.006,1.433v0.427V9.11v1.231
	H25.615z"/>
</svg>
