<?xml version="1.0" encoding="utf-8"?>
<!-- Generator: Adobe Illustrator 16.0.0, SVG Export Plug-In . SVG Version: 6.00 Build 0)  -->
<!DOCTYPE svg PUBLIC "-//W3C//DTD SVG 1.0//EN" "http://www.w3.org/TR/2001/REC-SVG-20010904/DTD/svg10.dtd">
<svg version="1.0" id="Layer_1" xmlns="http://www.w3.org/2000/svg" xmlns:xlink="http://www.w3.org/1999/xlink" x="0px" y="0px"
	 width="29px" height="28.993px" viewBox="0 0 29 28.993" enable-background="new 0 0 29 28.993" xml:space="preserve">
<path fill="#456BAB" d="M0,2.516C0,1.126,1.133,0,2.519,0h23.956C27.874,0,29,1.126,29,2.516v23.952
	c0,1.393-1.126,2.525-2.525,2.525H2.519C1.133,28.993,0,27.86,0,26.468V2.516z"/>
<path fill="#FFFFFF" d="M13.469,10.342h2.715V9.11V7.898V7.696c0-1.158,0.031-2.956,0.88-4.069c0.893-1.181,2.114-1.978,4.216-1.978
	c3.431,0,4.873,0.487,4.873,0.487l-0.679,4.026c0,0-1.138-0.326-2.188-0.326c-1.057,0-2.006,0.376-2.006,1.433v0.427V9.11v1.231
	h4.335l-0.305,3.927h-4.03v13.662h-5.096V14.269h-2.715V10.342z"/>
</svg>
