<?xml version="1.0" encoding="utf-8"?>
<!-- Generator: Adobe Illustrator 16.0.0, SVG Export Plug-In . SVG Version: 6.00 Build 0)  -->
<!DOCTYPE svg PUBLIC "-//W3C//DTD SVG 1.0//EN" "http://www.w3.org/TR/2001/REC-SVG-20010904/DTD/svg10.dtd">
<svg version="1.0" id="Layer_1" xmlns="http://www.w3.org/2000/svg" xmlns:xlink="http://www.w3.org/1999/xlink" x="0px" y="0px"
	 width="30px" height="30.003px" viewBox="0 0 30 30.003" enable-background="new 0 0 30 30.003" xml:space="preserve">
<path fill="#DB4F40" d="M20.251,12.738c0,0.495-0.007,0.996-0.007,1.494c-0.504,0.006-1.002,0.006-1.5,0.006v1.49
	c0.498,0.007,1.002,0.007,1.5,0.014c0,0.494,0,0.992,0.007,1.487c0.491,0,0.989,0,1.487,0c0-0.495,0.006-0.993,0.006-1.494
	c0.498,0,0.996,0,1.494-0.007v-1.49c-0.498,0-0.996,0-1.494-0.006c0-0.498-0.006-0.999-0.006-1.494H20.251z M6.787,14.985
	c-0.046,2.185,1.454,4.263,3.525,4.946c1.945,0.65,4.342,0.159,5.63-1.504c0.956-1.172,1.169-2.729,1.062-4.183
	c-1.666-0.013-3.339-0.013-4.999-0.007c0,0.591,0,1.182,0.007,1.783c0.996,0.025,1.998,0.013,2.994,0.033
	c-0.259,0.863-0.83,1.666-1.7,1.979c-1.687,0.74-3.831-0.227-4.355-1.992c-0.644-1.693,0.398-3.734,2.131-4.223
	c1.069-0.381,2.171,0.047,3.087,0.604c0.472-0.435,0.896-0.896,1.328-1.364c-1.042-0.88-2.383-1.408-3.751-1.295
	C9.044,9.8,6.688,12.287,6.787,14.985 M0.872,0.138C1.23-0.002,1.629,0.018,2,0.005c8.75,0.006,17.5,0,26.25,0.006
	c0.97-0.123,1.846,0.76,1.733,1.726c0.021,8.83,0.007,17.669,0.007,26.499c0.113,0.977-0.764,1.853-1.74,1.76
	c-8.829,0-17.666,0-26.495,0c-0.976,0.093-1.852-0.783-1.746-1.766c0-8.824-0.013-17.663,0.007-26.493
	C-0.038,1.09,0.308,0.459,0.872,0.138"/>
<path fill="#FFFFFF" d="M6.787,14.985C6.681,12.287,9.044,9.8,11.74,9.764c1.381-0.113,2.722,0.415,3.758,1.292
	c-0.425,0.471-0.863,0.933-1.321,1.368c-0.916-0.558-2.018-0.979-3.094-0.604c-1.726,0.488-2.775,2.53-2.138,4.223
	c0.531,1.766,2.682,2.732,4.362,1.992c0.87-0.316,1.447-1.115,1.7-1.979c-1.002-0.021-1.999-0.008-3.001-0.037
	c0-0.597,0-1.188,0-1.779c1.667-0.006,3.333-0.006,4.999,0.007c0.1,1.454-0.112,3.011-1.055,4.179
	c-1.302,1.667-3.691,2.158-5.637,1.508C8.241,19.248,6.741,17.17,6.787,14.985"/>
<path fill="#FFFFFF" d="M20.251,12.738h1.487c0,0.498,0.006,0.999,0.006,1.497c0.498,0,1.003,0.006,1.501,0.006v1.487
	c-0.498,0-1.003,0.01-1.501,0.01c-0.006,0.495-0.006,1-0.006,1.494c-0.505,0-0.996,0-1.487,0c-0.007-0.494-0.007-0.999-0.013-1.494
	c-0.498,0-0.996-0.01-1.488-0.01v-1.487c0.492,0,0.99-0.006,1.488-0.006C20.244,13.737,20.244,13.236,20.251,12.738"/>
</svg>
