<?xml version="1.0" encoding="utf-8"?>
<!-- Generator: Adobe Illustrator 16.0.0, SVG Export Plug-In . SVG Version: 6.00 Build 0)  -->
<!DOCTYPE svg PUBLIC "-//W3C//DTD SVG 1.0//EN" "http://www.w3.org/TR/2001/REC-SVG-20010904/DTD/svg10.dtd">
<svg version="1.0" id="Layer_1" xmlns="http://www.w3.org/2000/svg" xmlns:xlink="http://www.w3.org/1999/xlink" x="0px" y="0px"
	 width="30px" height="30.003px" viewBox="0 0 30 30.003" enable-background="new 0 0 30 30.003" xml:space="preserve">
<path fill="#FFFFFF" d="M29.982,1.737c0.113-0.966-0.763-1.85-1.732-1.727c-8.75-0.006-17.5,0-26.25-0.006
	C1.629,0.018,1.23-0.002,0.872,0.138c-0.564,0.321-0.91,0.952-0.856,1.6c-0.02,8.83-0.007,17.668-0.007,26.493
	c-0.106,0.982,0.77,1.859,1.746,1.766c8.829,0,17.666,0,26.495,0c0.977,0.094,1.854-0.783,1.74-1.76
	C29.99,19.406,30.004,10.567,29.982,1.737z M15.95,18.425c-1.302,1.668-3.691,2.158-5.637,1.509
	c-1.371-0.454-2.479-1.522-3.067-2.822c-0.19-0.42-0.336-0.858-0.406-1.315C6.8,15.53,6.781,15.258,6.787,14.985
	c-0.086-2.192,1.458-4.246,3.487-4.958c0.469-0.165,0.964-0.258,1.472-0.266c0.685-0.057,1.363,0.048,2,0.276
	c0.638,0.228,1.233,0.579,1.751,1.018c0,0.001-0.001,0.001-0.002,0.002c-0.36,0.39-0.721,0.772-1.103,1.141
	c-0.074,0.073-0.142,0.153-0.217,0.225c-0.002-0.001-0.005-0.002-0.007-0.004c0,0,0,0-0.001,0.001
	c-0.229-0.139-0.468-0.27-0.717-0.382c-0.745-0.334-1.564-0.5-2.369-0.219c-1.221,0.346-2.089,1.471-2.275,2.698
	c-0.075,0.506-0.045,1.028,0.143,1.522c0.524,1.765,2.668,2.731,4.355,1.992c0.868-0.314,1.439-1.115,1.698-1.977
	c-0.916-0.02-1.828-0.013-2.743-0.033c-0.083-0.002-0.167-0.001-0.25-0.003v-0.001c-0.002,0-0.004,0-0.006,0
	c0-0.519,0-1.031,0-1.544c0-0.079-0.001-0.159-0.001-0.238c1.66-0.006,3.333-0.006,4.999,0.007c0,0.001,0,0.002,0,0.003h0.001
	c0.005,0.07,0.005,0.142,0.009,0.213c0.05,0.978-0.054,1.988-0.436,2.891C16.419,17.732,16.217,18.095,15.95,18.425z M23.245,15.728
	c-0.498,0-1.003,0.01-1.501,0.01c-0.006,0.495-0.006,1-0.006,1.494c-0.506,0-0.996,0-1.487,0c-0.007-0.493-0.007-0.996-0.013-1.49
	c-0.496-0.007-0.998-0.007-1.494-0.014v-1.49c0.496,0,0.992,0,1.494-0.006c0.006-0.497,0.006-0.997,0.013-1.494h1.487
	c0,0.495,0.006,0.996,0.006,1.494c0.498,0.006,0.996,0.006,1.494,0.006v0.003c0.002,0,0.005,0,0.007,0V15.728z"/>
</svg>
