<?xml version="1.0" encoding="utf-8"?>
<!-- Generator: Adobe Illustrator 16.0.0, SVG Export Plug-In . SVG Version: 6.00 Build 0)  -->
<!DOCTYPE svg PUBLIC "-//W3C//DTD SVG 1.0//EN" "http://www.w3.org/TR/2001/REC-SVG-20010904/DTD/svg10.dtd">
<svg version="1.0" id="Layer_1" xmlns="http://www.w3.org/2000/svg" xmlns:xlink="http://www.w3.org/1999/xlink" x="0px" y="0px"
	 width="30px" height="29.993px" viewBox="0 0 30 29.993" enable-background="new 0 0 30 29.993" xml:space="preserve">
<path fill="#FFFFFF" d="M27.389,0H2.599C1.166,0,0,1.166,0,2.603v24.778c0,1.439,1.166,2.611,2.599,2.611h24.79
	c1.439,0,2.611-1.172,2.611-2.611V2.603C30,1.166,28.828,0,27.389,0z M22.449,11.169c0.008,0.167,0.014,0.331,0.014,0.498
	c0,5.082-3.869,10.94-10.94,10.94c-2.173,0-4.19-0.634-5.893-1.728c0.301,0.039,0.603,0.053,0.917,0.053
	c1.794,0,3.457-0.609,4.773-1.643c-1.682-0.033-3.103-1.147-3.594-2.676c0.236,0.049,0.478,0.075,0.727,0.075
	c0.347,0,0.687-0.048,1.008-0.134c-1.755-0.355-3.084-1.911-3.084-3.774c0-0.013,0-0.033,0-0.049
	c0.518,0.288,1.114,0.464,1.742,0.484c-1.028-0.691-1.709-1.872-1.709-3.205c0-0.704,0.19-1.362,0.515-1.932
	c1.898,2.328,4.733,3.856,7.935,4.017c-0.071-0.282-0.104-0.57-0.104-0.871c0-2.128,1.723-3.85,3.844-3.85
	c1.107,0,2.109,0.468,2.809,1.214c0.878-0.167,1.695-0.491,2.443-0.933c-0.289,0.9-0.897,1.65-1.689,2.125
	c0.771-0.092,1.518-0.295,2.206-0.604C23.857,9.951,23.195,10.626,22.449,11.169z"/>
</svg>
