<?xml version="1.0" encoding="utf-8"?>
<!-- Generator: Adobe Illustrator 16.0.0, SVG Export Plug-In . SVG Version: 6.00 Build 0)  -->
<!DOCTYPE svg PUBLIC "-//W3C//DTD SVG 1.0//EN" "http://www.w3.org/TR/2001/REC-SVG-20010904/DTD/svg10.dtd">
<svg version="1.0" id="Layer_1" xmlns="http://www.w3.org/2000/svg" xmlns:xlink="http://www.w3.org/1999/xlink" x="0px" y="0px"
	 width="30px" height="29.993px" viewBox="0 0 30 29.993" enable-background="new 0 0 30 29.993" xml:space="preserve">
<path fill="#1CA1F2" d="M0,2.603C0,1.166,1.166,0,2.599,0h24.789C28.828,0,30,1.166,30,2.603v24.778c0,1.44-1.172,2.612-2.612,2.612
	H2.599C1.166,29.993,0,28.821,0,27.381V2.603z"/>
<path fill="#FFFFFF" d="M11.523,22.607c7.071,0,10.94-5.859,10.94-10.94c0-0.167-0.006-0.331-0.014-0.498
	c0.747-0.543,1.408-1.218,1.919-1.991c-0.688,0.308-1.434,0.511-2.206,0.603c0.792-0.475,1.4-1.225,1.689-2.125
	c-0.747,0.442-1.565,0.766-2.443,0.933c-0.699-0.746-1.701-1.214-2.809-1.214c-2.121,0-3.843,1.722-3.843,3.85
	c0,0.301,0.033,0.589,0.104,0.871c-3.202-0.161-6.037-1.689-7.935-4.017C6.6,8.649,6.41,9.307,6.41,10.011
	c0,1.333,0.681,2.514,1.709,3.205c-0.628-0.02-1.224-0.196-1.742-0.484c0,0.016,0,0.036,0,0.049c0,1.863,1.329,3.418,3.084,3.774
	C9.14,16.641,8.8,16.689,8.453,16.689c-0.249,0-0.491-0.026-0.727-0.076c0.491,1.529,1.912,2.643,3.594,2.676
	c-1.316,1.033-2.979,1.643-4.773,1.643c-0.314,0-0.616-0.013-0.917-0.053C7.333,21.973,9.35,22.607,11.523,22.607"/>
</svg>
