<?xml version="1.0" encoding="utf-8"?>
<!-- Generator: Adobe Illustrator 16.0.0, SVG Export Plug-In . SVG Version: 6.00 Build 0)  -->
<!DOCTYPE svg PUBLIC "-//W3C//DTD SVG 1.0//EN" "http://www.w3.org/TR/2001/REC-SVG-20010904/DTD/svg10.dtd">
<svg version="1.0" id="Layer_1" xmlns="http://www.w3.org/2000/svg" xmlns:xlink="http://www.w3.org/1999/xlink" x="0px" y="0px"
	 width="29.006px" height="20.406px" viewBox="0 0 29.006 20.406" enable-background="new 0 0 29.006 20.406" xml:space="preserve">
<g>
	<defs>
		<path id="SVGID_1_" d="M11.505,5.811l7.839,4.088l-7.839,4.066V5.811z M14.493,0c0,0-6.09,0-10.146,0.292
			C3.783,0.361,2.545,0.372,1.444,1.528C0.569,2.408,0.29,4.402,0.29,4.402S0,6.749,0,9.095v2.202c0,2.345,0.29,4.694,0.29,4.694
			s0.279,2.001,1.154,2.876c1.101,1.158,2.55,1.117,3.192,1.243c2.323,0.221,9.862,0.295,9.862,0.295s6.095-0.011,10.161-0.311
			c0.56-0.058,1.803-0.069,2.898-1.228c0.868-0.875,1.159-2.876,1.159-2.876S29,13.642,29,11.297V9.095
			c0-2.347-0.283-4.693-0.283-4.693s-0.291-1.994-1.159-2.874c-1.096-1.156-2.339-1.167-2.898-1.235C20.593,0,14.508,0,14.508,0
			H14.493z"/>
	</defs>
	<use xlink:href="#SVGID_1_"  overflow="visible" fill="#E42F2B"/>
	<clipPath id="SVGID_2_">
		<use xlink:href="#SVGID_1_"  overflow="visible"/>
	</clipPath>
	<rect clip-path="url(#SVGID_2_)" fill="#E42F2B" width="29.006" height="20.406"/>
</g>
</svg>
