<?xml version="1.0" encoding="utf-8"?>
<!-- Generator: Adobe Illustrator 16.0.0, SVG Export Plug-In . SVG Version: 6.00 Build 0)  -->
<!DOCTYPE svg PUBLIC "-//W3C//DTD SVG 1.1//EN" "http://www.w3.org/Graphics/SVG/1.1/DTD/svg11.dtd">
<svg version="1.1" id="Layer_1" xmlns="http://www.w3.org/2000/svg" xmlns:xlink="http://www.w3.org/1999/xlink" x="0px" y="0px"
	 width="27.088px" height="3.532px" viewBox="0 0 27.088 3.532" enable-background="new 0 0 27.088 3.532" xml:space="preserve">
<g>
	<path fill="#EC1E27" d="M1.385,2.953c-0.362,0-0.487-0.063-0.487-0.223c0-0.202,0.082-0.289,0.472-0.289h0.41
		c0.512,0,0.565,0.067,0.565,0.251c0,0.163-0.058,0.261-0.695,0.261H1.385L1.385,2.953z M0,2.832c0,0.579,0.362,0.705,0.927,0.7
		h0.632c0.463,0,0.559-0.054,0.815-0.319v0.28h0.878V1.877c0-0.579-0.338-0.883-0.975-0.883H1.202c-0.782,0-1.11,0.111-1.11,0.777
		h0.897c0.01-0.174,0.087-0.199,0.357-0.199h0.545c0.362,0,0.435,0.088,0.435,0.328v0.218C2.147,1.935,1.867,1.92,1.361,1.92
		C0.463,1.92,0,1.959,0,2.629V2.832L0,2.832z"/>
	<path fill="#EC1E27" d="M3.539,2.128c0-0.931,0.463-1.134,1.138-1.134H5.72c0.685,0,1.104,0.251,1.104,0.814v0.223H5.927
		c0-0.252-0.13-0.342-0.536-0.342H5.034c-0.386,0-0.569,0.105-0.569,0.375v0.328c0,0.319,0.203,0.415,0.492,0.415H5.43
		c0.261,0,0.497-0.058,0.497-0.284V2.465h0.897v0.218c0,0.661-0.55,0.85-1.08,0.85H4.798c-0.613,0-1.259-0.116-1.259-1.168V2.128
		L3.539,2.128z"/>
	<path fill="#EC1E27" d="M7.519,1.697H7.056V1.033h0.463V0.454h0.927v0.579h1.438v0.664H8.446v0.946
		c0,0.184,0.135,0.223,0.357,0.223c0.299,0,0.381-0.068,0.381-0.294V2.408h0.811v0.299c0,0.468-0.309,0.825-1.048,0.825H8.581
		c-0.569,0-1.062-0.18-1.062-0.859V1.697L7.519,1.697z"/>
	<path fill="#EC1E27" d="M12.509,2.146c0-0.352,0.208-0.457,0.632-0.457h0.222c0.599,0,0.715,0.076,0.715,0.404v0.338
		c0,0.328-0.116,0.405-0.715,0.405h-0.222c-0.424,0-0.632-0.106-0.632-0.458V2.146L12.509,2.146z M11.583,2.557
		c0,0.812,0.545,0.976,1.018,0.976h1.385c0.474,0,1.019-0.164,1.019-0.976V1.969c0-0.811-0.545-0.975-1.019-0.975h-1.385
		c-0.473,0-1.018,0.164-1.018,0.975V2.557L11.583,2.557z"/>
	<path fill="#EC1E27" d="M15.34,1.033h0.926v0.395h0.01c0.164-0.342,0.487-0.434,0.984-0.434c0.574,0,1.375,0.023,1.375,1.086v1.413
		h-0.926V2.08c0-0.242-0.193-0.362-0.6-0.362h-0.212c-0.396,0-0.632,0.183-0.632,0.535v1.24H15.34V1.033L15.34,1.033z"/>
	<path fill="#EC1E27" d="M20.311,2.953c-0.36,0-0.486-0.063-0.486-0.223c0-0.202,0.082-0.289,0.473-0.289h0.41
		c0.511,0,0.564,0.067,0.564,0.251c0,0.163-0.058,0.261-0.694,0.261H20.311L20.311,2.953z M18.927,2.832
		c0,0.579,0.362,0.705,0.926,0.7h0.632c0.464,0,0.561-0.054,0.816-0.319v0.28h0.878V1.877c0-0.579-0.338-0.883-0.975-0.883h-1.076
		c-0.782,0-1.11,0.111-1.11,0.777h0.898c0.009-0.174,0.087-0.199,0.356-0.199h0.545c0.362,0,0.435,0.088,0.435,0.328v0.218
		c-0.178-0.184-0.458-0.198-0.965-0.198c-0.897,0-1.36,0.039-1.36,0.709V2.832L18.927,2.832z"/>
	<path fill="#EC1E27" d="M23.436,3.493H22.51v-2.46h0.926V3.493L23.436,3.493z M23.436,0.724H22.51V0h0.926V0.724L23.436,0.724z"/>
	<path fill="#EC1E27" d="M24.627,2.118c0-0.275,0.044-0.429,0.487-0.429h0.546c0.365,0,0.559,0.082,0.559,0.452v0.241
		c0,0.372-0.193,0.454-0.559,0.454h-0.546c-0.443,0-0.487-0.154-0.487-0.429V2.118L24.627,2.118z M23.729,2.485
		c0,0.627,0.146,1.047,1.317,1.047h0.27c0.561,0,0.791-0.188,0.894-0.492h0.009v0.453h0.869V0h-0.927v1.486h-0.009
		c-0.059-0.387-0.449-0.492-0.83-0.492h-0.275c-1.172,0-1.317,0.42-1.317,1.047V2.485L23.729,2.485z"/>
	<polygon fill="#EC1E27" points="10.335,1.025 11.243,1.025 11.243,2.459 10.335,2.459 10.335,1.025 	"/>
	<polygon fill="#EC1E27" points="10.333,2.77 11.241,2.77 11.241,3.476 10.333,3.476 10.333,2.77 	"/>
</g>
</svg>
