<?xml version="1.0" encoding="utf-8"?>
<!-- Generator: Adobe Illustrator 16.0.0, SVG Export Plug-In . SVG Version: 6.00 Build 0)  -->
<!DOCTYPE svg PUBLIC "-//W3C//DTD SVG 1.1//EN" "http://www.w3.org/Graphics/SVG/1.1/DTD/svg11.dtd">
<svg version="1.1" id="Layer_1" xmlns="http://www.w3.org/2000/svg" xmlns:xlink="http://www.w3.org/1999/xlink" x="0px" y="0px"
	 width="125px" height="72.896px" viewBox="961.5 1067.552 125 72.896" enable-background="new 961.5 1067.552 125 72.896"
	 xml:space="preserve">
<path fill="#DDDDDD" d="M1086.5,1130.052c0,1.086-0.418,2.046-1.252,2.881l-6.263,6.263c-0.835,0.835-1.796,1.253-2.881,1.253
	c-1.086,0-2.046-0.418-2.881-1.253L1024,1089.972l-49.224,49.224c-0.835,0.835-1.795,1.253-2.88,1.253
	c-1.086,0-2.046-0.418-2.881-1.253l-6.263-6.263c-0.835-0.835-1.252-1.795-1.252-2.881c0-1.085,0.417-2.045,1.252-2.881
	l58.367-58.366c0.835-0.835,1.795-1.253,2.881-1.253c1.086,0,2.046,0.418,2.881,1.253l58.367,58.366
	C1086.082,1128.007,1086.5,1128.967,1086.5,1130.052z"/>
</svg>
