<?xml version="1.0" encoding="utf-8"?>
<!-- Generator: Adobe Illustrator 16.0.0, SVG Export Plug-In . SVG Version: 6.00 Build 0)  -->
<!DOCTYPE svg PUBLIC "-//W3C//DTD SVG 1.0//EN" "http://www.w3.org/TR/2001/REC-SVG-20010904/DTD/svg10.dtd">
<svg version="1.0" id="Layer_1" xmlns="http://www.w3.org/2000/svg" xmlns:xlink="http://www.w3.org/1999/xlink" x="0px" y="0px"
	 width="50px" height="49.999px" viewBox="0 0 50 49.999" enable-background="new 0 0 50 49.999" xml:space="preserve">
<path fill="#E30514" d="M25.002,45.511c-11.322,0-20.506-9.187-20.506-20.509c0-11.326,9.184-20.498,20.506-20.498
	s20.502,9.172,20.502,20.498C45.479,36.308,36.315,45.478,25.002,45.511 M25.002,0C11.188,0,0,11.195,0,25.001
	c0,13.818,11.188,24.998,25.002,24.998C38.812,49.999,50,38.819,50,25.001C49.983,11.195,38.805,0.015,25.002,0"/>
<path fill="#E30514" d="M35.744,26.788h-0.571h-4.997v-0.686V10.68c0.064-0.448-0.18-0.89-0.596-1.068h-9.001
	c-0.424,0.13-0.693,0.555-0.641,0.995V26.56v0.547h-0.62h-4.912c-0.343,0.049-0.678,0.139-1.004,0.277
	c0.11,0.311,0.253,0.596,0.437,0.874c3.334,3.724,6.684,7.462,10.033,11.165c1.113,1.242,1.624,1.273,2.692,0
	c3.256-3.834,6.504-7.701,9.727-11.574C36.838,27.245,36.634,26.871,35.744,26.788"/>
</svg>
